{"title":"Brake 2012 VoDrip XviD Ac3 Feel-Free","uid":7041781,"size":925148791,"categoryP":"video","categoryS":"movies","magnet":"?xt=urn:btih:1d4e23b0ba86ba8c26c28fbf94852adab35b9626&amp;dn=Brake+2012+VoDrip+XviD+Ac3+Feel-Free&amp;tr=udp%3A%2F%2Ftracker.openbittorrent.com%3A80&amp;tr=udp%3A%2F%2Fopen.demonii.com%3A1337&amp;tr=udp%3A%2F%2Ftracker.coppersurfer.tk%3A6969&amp;tr=udp%3A%2F%2Fexodus.desync.com%3A6969","seeders":1,"leechers":0,"uploader":"bert2006","files":9,"time":1329574181,"description":"Genre:Action | Thriller\nLanguage:English\nIMDb:http://www.imdb.com/title/tt1990181/\nSource:DVD ISO-HOKNOWS Thanks!\nEncoder:Tony\n\nFormat : AVI\nFormat/Info : Audio Video Interleave\nFile size : 881 MiB\nDuration : 1h 31mn\nOverall bit rate : 1 352 Kbps\n\nVideo\nID : 0\nFormat : MPEG-4 Visual\nFormat profile : Advanced Simple@L5\nFormat settings, BVOP : 1\nFormat settings, QPel : No\nFormat settings, GMC : No warppoints\nFormat settings, Matrix : Default (H.263)\nCodec ID : XVID\nCodec ID/Hint : XviD\nDuration : 1h 31mn\nBit rate : 1 149 Kbps\nWidth : 640 pixels\nHeight : 376 pixels\nDisplay aspect ratio : 16:9\nFrame rate : 29.970 fps\nColor space : YUV\nChroma subsampling : 4:2:0\nBit depth : 8 bits\nScan type : Progressive\nCompression mode : Lossy\nBits/(Pixel*Frame) : 0.159\nStream size : 748 MiB (85%)\nWriting library : XviD 1.2.1 (UTC 2008-12-04)\n\nAudio\nID : 1\nFormat : AC-3\nFormat/Info : Audio Coding 3\nMode extension : CM (complete main)\nCodec ID : 2000\nDuration : 1h 31mn\nBit rate mode : Constant\nBit rate : 192 Kbps\nChannel(s) : 2 channels\nChannel positions : Front: L R\nSampling rate : 48.0 KHz\nBit depth : 16 bits\nCompression mode : Lossy\nStream size : 125 MiB (14%)\nAlignment : Aligned on interleaves\nInterleave, duration : 33 ms (1.00 video frame)\nInterleave, preload duration : 512 ms\n\n\nPlot:\nA Secret Service Agent is held captive in the trunk of a car and endures high-speed mental and physical torture as terrorists attempt to extract needed information for their sinister plot.","torrent":{"xt":"urn:btih:1d4e23b0ba86ba8c26c28fbf94852adab35b9626","amp;dn":"Brake+2012+VoDrip+XviD+Ac3+Feel-Free","amp;tr":["udp%3A%2F%2Ftracker.openbittorrent.com%3A80","udp%3A%2F%2Fopen.demonii.com%3A1337","udp%3A%2F%2Ftracker.coppersurfer.tk%3A6969","udp%3A%2F%2Fexodus.desync.com%3A6969"],"infoHash":"1d4e23b0ba86ba8c26c28fbf94852adab35b9626","infoHashBuffer":{"type":"Buffer","data":[29,78,35,176,186,134,186,140,38,194,143,191,148,133,42,218,179,91,150,38]},"announce":[],"urlList":[]}}